<svg xmlns="http://www.w3.org/2000/svg" viewBox="0 0 850 550" width="100%" height="100%">
  <defs>
    <mask id="tree-cutouts">
      <rect x="0" y="0" width="850" height="550" fill="white" />
      <polygon points="760,100 820,60 820,95" fill="black" />
      <polygon points="770,135 820,140 820,155" fill="black" />
      <polygon points="750,210 820,230 820,250" fill="black" />
    </mask>

    <linearGradient id="screen-grad" x1="0%" y1="0%" x2="0%" y2="100%">
      <stop offset="0%" stop-color="#30333d" />
      <stop offset="100%" stop-color="#24262d" />
    </linearGradient>
  </defs>

  <circle cx="280" cy="275" r="230" fill="#f2f3f5" />
  <ellipse cx="400" cy="485" rx="364" ry="25" fill="#3f3d56" />
  <ellipse cx="400" cy="477" rx="326" ry="20" opacity="0.2" />

  <rect x="120" y="120" width="560" height="360" rx="15" fill="#393448" />
  <path d="M120 135 A15 15 0 0 1 135 120 L665 120 A15 15 0 0 1 680 135 L680 155 L120 155 Z" fill="#2c2838" />
  
  <circle cx="145" cy="137.5" r="7" fill="#454056" />
  <circle cx="170" cy="137.5" r="7" fill="#454056" />
  <circle cx="195" cy="137.5" r="7" fill="#454056" />

  <!-- Écran gauche -->
  <rect x="145" y="180" width="220" height="270" rx="8" fill="url(#screen-grad)" />

  <!-- TON LOGO REMPLACÉ -->
  <g transform="translate(255, 315)">
    <g transform="scale(0.42) translate(-200, -220)">
      <g fill="#7fd6f5">
        <path d="M254.83,200.38s-.22-.39-.49-.83c-13.87-23.29-52.01-42.75-87.35-63.84-.54-.32-5.94-3.63-13.14-8.07-7.79-4.81-11.45-7.12-19.19-11.94-24.25-15.12-26.91-16.49-32.43-21.06-6-4.97-10.53-9.49-13.4-12.51-.27,2.93-.48,7.37,0,12.73.4,4.53,1.7,16.9,9.55,26.9,3.89,4.97,7.83,7.34,15.55,11.87,23.43,13.77,35.45,20.42,47.52,27.53,7.01,4.13,18.73,11.16,26.28,15.72,1.04.63,3.51,2.13,8.46,5.12,19.15,11.61,19.9,12.31,21.59,13.28,3.22,1.85,11.71,6.76,17.62,16.66,1.04,1.74,3.94,6.89,4.72,11.79,2.03,12.64-9.4,27.71-27.51,38.11-3.25-1.56-7.71-4.1-12.3-8.12-5.77-5.06-10.25-11.18-12.22-15.45-5.59-12.09.16-29.89,13.03-44.9-6.06-3.7-12.13-7.4-18.19-11.11-3.38,3.96-7.85,10.08-11.3,18.38-2.59,6.24-9.76,23.5-3.06,43.28,6.34,18.73,21.17,28.04,25.66,30.64-4.6,3.62-11.62,9.42-19.55,17.21-13.43,13.18-20.49,23.21-34.38,41.02-6.73,8.62-16.83,21.35-29.79,36.77,12.44-2.79,24.88-5.59,37.32-8.38,18.72-29.89,35.63-51.24,45.49-59.3,4.24-3.46,8.6-6.7,8.6-6.7,6.66-4.95,10.9-7.55,20.09-13.62,8.37-5.52,12.55-8.28,13.96-9.36,17.48-13.38,22.22-24.5,23.68-28.35.46-1.22.75-2.11.85-2.42,6.15-19.42-3.35-37.08-5.64-41.06Z"/>
        <path d="M184.19,319.87l11.91,9.53-10.04,21.62-26.89,6.98c3.83-6.97,8.26-14.34,13.36-21.96,3.9-5.82,7.82-11.21,11.66-16.17Z"/>
        <path d="M177.64,279.36l-14.21,14.81c-8.78-8.63-21-22.8-30.26-43.15-13.57-29.84-13.52-57.01-12.51-70.85,6.94,3.79,13.87,7.57,20.81,11.36.03,10.49,1.39,28.02,9.57,47.74,8.06,19.44,19.27,32.65,26.6,40.09Z"/>
        <path d="M101.77,134.85c25.29,14.55,50.58,29.11,75.87,43.66-1.98,2.14-4.18,4.85-6.3,8.17-2.51,3.93-4.2,7.64-5.36,10.72-16.13-8.89-32.26-17.79-48.38-26.68-2.21-1.59-4.53-3.62-6.7-6.2-9.29-11.05-9.37-24.56-9.13-29.67Z"/>
        <path d="M319.43,129.11c-3.59-7.53-11.65-12.39-20.81-12.77-1.33-2.25-5.12-7.94-12.38-10.72-2.93-1.12-5.61-1.47-7.66-1.53-3.85-.29-9.04-.6-15.19-.77-18.23-.48-25.09.92-35.62-2.04-5.37-1.51-9.74-3.61-13.02-5.49.02,2.05.34,7.13,3.83,12,5.49,7.67,14.32,8.56,15.7,8.68-4.31,3.49-8.96,7.67-13.66,12.64-6.91,7.31-12.2,14.51-16.21,20.81,2.97,1.85,7.27,4.56,12.38,7.91,20.38,13.36,30.58,20.04,36.78,27.76,3.58,4.46,11.65,14.75,14.03,29.56,1.19,7.39.64,13.88,1.28,13.91.85.05,3.03-11.33,3.32-24.26.49-22.09-5.03-27.13-1.15-40.85,1.16-4.09,3.79-12.93,11.87-19.53,9.58-7.82,25.56-11.46,34.47-4.6,1.6,1.24,2.71,2.6,3.45,3.7.52-2.28,1.55-8.24-1.4-14.43ZM279.85,122.72c-3.31-.1-6.13-2.8-6.38-6.26,4.34.37,8.68.74,13.01,1.1-.76,3.1-3.57,5.25-6.63,5.15Z"/>
        <path d="M309.72,175.57l-31.32-12.43c-.28.7-.63,1.68-.96,2.89-.82,3.05-.9,5.48-.94,7.06-.14,5.55,1.03,10.88,1.55,13.05,3.57,1.3,7.15,2.59,10.72,3.89.09,9.65-.89,20.56-3.91,32.17-13.17,50.72-55.55,77.97-69.96,86.36-3.35-2.57-6.7-5.15-10.04-7.72-2.71,1.99-5.6,4.29-8.55,6.96-2.59,2.33-4.89,4.63-6.94,6.83,3.12,3.01,6.83,6.24,11.17,9.45,5.04,3.73,9.88,6.65,14.19,8.94,25.25-13.05,42.29-28.37,52.6-39.15,8.24-8.62,18.25-19.26,26.83-36.2,10.41-20.58,12.97-39.12,14.36-49.92,1.7-13.18,1.62-24.31,1.19-32.17Z"/>
        <path d="M196.34,212.04l6.72-9.28,26.38,16v19.15c-4.77,3.15-9.53,6.3-14.3,9.45-.03-4.06-.06-8.11-.09-12.17.36-.15,2.94-1.3,3.76-4.17.09-.33.62-2.31-.34-4.34-.9-1.9-2.62-2.81-3.25-3.15-3.28-1.78-9.94-5.91-18.89-11.49Z"/>
        <path d="M195.74,217.74v19.74l14.98,9.87v-12.29c-.35-.14-2.75-1.11-3.66-3.76-1.08-3.13.9-5.73,1.04-5.91-4.12-2.55-8.24-5.11-12.36-7.66Z"/>
      </g>
    </g>
  </g>

  <!-- Code hashcat directement sur le fond -->
  <g>
    <!-- Commande en couleur -->
    <text x="430" y="200" font-family="monospace" font-size="12" fill="#7fd6f5">$ hashcat -m 0 h.txt w.txt</text>
    <text x="430" y="225" font-family="monospace" font-size="11" fill="#9ba3af">Session..........: hashcat</text>
    <text x="430" y="245" font-family="monospace" font-size="11" fill="#9ba3af">Status...........: Running</text>
    <text x="430" y="265" font-family="monospace" font-size="11" fill="#9ba3af">Hash.Mode........: 0 (MD5)</text>
    <text x="430" y="285" font-family="monospace" font-size="11" fill="#9ba3af">Speed.#1.........: 8524.3 MH/s</text>
    <text x="430" y="305" font-family="monospace" font-size="11" fill="#9ba3af">Recovered........: 1/1 (100.00%)</text>
    <text x="430" y="330" font-family="monospace" font-size="11" fill="#9ba3af">Cracked:</text>
    <!-- R\u00e9sultat en couleur -->
    <text x="430" y="355" font-family="monospace" font-size="11" fill="#4ade80">29ee5ff93f...:Eyrie123</text>
    <text x="430" y="380" font-family="monospace" font-size="11" fill="#9ba3af">Time: 23s</text>
    <text x="430" y="410" font-family="monospace" font-size="12" fill="#7fd6f5">$_</text>
  </g>

  <!-- Arbre d\u00e9coratif -->
  <g mask="url(#tree-cutouts)">
    <rect x="725" y="360" width="26" height="130" rx="10" fill="#393448" />
    <circle cx="738" cy="310" r="65" fill="#164657" />
    <circle cx="738" cy="220" r="70" fill="#1e6076" />
    <circle cx="738" cy="130" r="65" fill="#2a87a8" />
  </g>

</svg>